<svg width="60" height="60" viewBox="0 0 60 60" fill="none" xmlns="http://www.w3.org/2000/svg">
<rect x="0.5" y="0.5" width="59" height="59" rx="29.5" stroke="white"/>
<path d="M24.4003 16.6666H35.6003C39.867 16.6666 43.3337 20.1333 43.3337 24.4V35.6C43.3337 37.651 42.5189 39.618 41.0686 41.0683C39.6183 42.5185 37.6513 43.3333 35.6003 43.3333H24.4003C20.1337 43.3333 16.667 39.8666 16.667 35.6V24.4C16.667 22.349 17.4818 20.3819 18.932 18.9317C20.3823 17.4814 22.3493 16.6666 24.4003 16.6666ZM24.1337 19.3333C22.8606 19.3333 21.6397 19.839 20.7395 20.7392C19.8394 21.6394 19.3337 22.8603 19.3337 24.1333V35.8666C19.3337 38.52 21.4803 40.6666 24.1337 40.6666H35.867C37.14 40.6666 38.3609 40.1609 39.2611 39.2607C40.1613 38.3606 40.667 37.1397 40.667 35.8666V24.1333C40.667 21.48 38.5203 19.3333 35.867 19.3333H24.1337ZM37.0003 21.3333C37.4424 21.3333 37.8663 21.5089 38.1788 21.8214C38.4914 22.134 38.667 22.5579 38.667 23C38.667 23.442 38.4914 23.8659 38.1788 24.1785C37.8663 24.491 37.4424 24.6666 37.0003 24.6666C36.5583 24.6666 36.1344 24.491 35.8218 24.1785C35.5093 23.8659 35.3337 23.442 35.3337 23C35.3337 22.5579 35.5093 22.134 35.8218 21.8214C36.1344 21.5089 36.5583 21.3333 37.0003 21.3333ZM30.0003 23.3333C31.7684 23.3333 33.4641 24.0357 34.7144 25.2859C35.9646 26.5362 36.667 28.2318 36.667 30C36.667 31.7681 35.9646 33.4638 34.7144 34.714C33.4641 35.9642 31.7684 36.6666 30.0003 36.6666C28.2322 36.6666 26.5365 35.9642 25.2863 34.714C24.036 33.4638 23.3337 31.7681 23.3337 30C23.3337 28.2318 24.036 26.5362 25.2863 25.2859C26.5365 24.0357 28.2322 23.3333 30.0003 23.3333ZM30.0003 26C28.9395 26 27.922 26.4214 27.1719 27.1715C26.4218 27.9217 26.0003 28.9391 26.0003 30C26.0003 31.0608 26.4218 32.0782 27.1719 32.8284C27.922 33.5785 28.9395 34 30.0003 34C31.0612 34 32.0786 33.5785 32.8288 32.8284C33.5789 32.0782 34.0003 31.0608 34.0003 30C34.0003 28.9391 33.5789 27.9217 32.8288 27.1715C32.0786 26.4214 31.0612 26 30.0003 26Z" fill="white"/>
</svg>
